<svg xmlns="http://www.w3.org/2000/svg" width="1100" height="650" viewBox="0 0 1100 650">
<rect width="100%" height="100%" fill="white"/>
<text x="550.0" y="40" text-anchor="middle" font-family="Arial" font-size="24" font-weight="bold">RA-MARS v5 RF/SINR Validation</text>
<line x1="90" y1="80" x2="90" y2="500" stroke="black" stroke-width="2"/>
<line x1="90" y1="500" x2="1060" y2="500" stroke="black" stroke-width="2"/>
<text x="25" y="325.0" transform="rotate(-90 25,325.0)" text-anchor="middle" font-family="Arial" font-size="16">Mean SINR (dB)</text>
<line x1="85" y1="500.0" x2="90" y2="500.0" stroke="black"/>
<text x="80" y="505.0" text-anchor="end" font-family="Arial" font-size="12">0.0</text>
<line x1="90" y1="500.0" x2="1060" y2="500.0" stroke="#ddd"/>
<line x1="85" y1="416.0" x2="90" y2="416.0" stroke="black"/>
<text x="80" y="421.0" text-anchor="end" font-family="Arial" font-size="12">9.2</text>
<line x1="90" y1="416.0" x2="1060" y2="416.0" stroke="#ddd"/>
<line x1="85" y1="332.0" x2="90" y2="332.0" stroke="black"/>
<text x="80" y="337.0" text-anchor="end" font-family="Arial" font-size="12">18.4</text>
<line x1="90" y1="332.0" x2="1060" y2="332.0" stroke="#ddd"/>
<line x1="85" y1="248.0" x2="90" y2="248.0" stroke="black"/>
<text x="80" y="253.0" text-anchor="end" font-family="Arial" font-size="12">27.6</text>
<line x1="90" y1="248.0" x2="1060" y2="248.0" stroke="#ddd"/>
<line x1="85" y1="164.0" x2="90" y2="164.0" stroke="black"/>
<text x="80" y="169.0" text-anchor="end" font-family="Arial" font-size="12">36.7</text>
<line x1="90" y1="164.0" x2="1060" y2="164.0" stroke="#ddd"/>
<line x1="85" y1="80.0" x2="90" y2="80.0" stroke="black"/>
<text x="80" y="85.0" text-anchor="end" font-family="Arial" font-size="12">45.9</text>
<line x1="90" y1="80.0" x2="1060" y2="80.0" stroke="#ddd"/>
<rect x="102.0" y="252.9" width="31.5" height="247.1" fill="#4a78c2"/>
<text x="117.8" y="244.9" text-anchor="middle" font-family="Arial" font-size="12">27.01</text>
<text x="117.8" y="518" text-anchor="end" transform="rotate(-45 117.8,518)" font-family="Arial" font-size="12">combined-high</text>
<rect x="145.5" y="171.2" width="31.5" height="328.8" fill="#4a78c2"/>
<text x="161.3" y="163.2" text-anchor="middle" font-family="Arial" font-size="12">35.95</text>
<text x="161.3" y="518" text-anchor="end" transform="rotate(-45 161.3,518)" font-family="Arial" font-size="12">combined-low</text>
<rect x="189.1" y="210.4" width="31.5" height="289.6" fill="#4a78c2"/>
<text x="204.9" y="202.4" text-anchor="middle" font-family="Arial" font-size="12">31.67</text>
<text x="204.9" y="518" text-anchor="end" transform="rotate(-45 204.9,518)" font-family="Arial" font-size="12">combined-medium</text>
<rect x="232.6" y="253.9" width="31.5" height="246.1" fill="#4a78c2"/>
<text x="248.4" y="245.9" text-anchor="middle" font-family="Arial" font-size="12">26.90</text>
<text x="248.4" y="518" text-anchor="end" transform="rotate(-45 248.4,518)" font-family="Arial" font-size="12">jamming-high</text>
<rect x="276.2" y="175.0" width="31.5" height="325.0" fill="#4a78c2"/>
<text x="292.0" y="167.0" text-anchor="middle" font-family="Arial" font-size="12">35.53</text>
<text x="292.0" y="518" text-anchor="end" transform="rotate(-45 292.0,518)" font-family="Arial" font-size="12">jamming-low</text>
<rect x="319.7" y="208.7" width="31.5" height="291.3" fill="#4a78c2"/>
<text x="335.5" y="200.7" text-anchor="middle" font-family="Arial" font-size="12">31.85</text>
<text x="335.5" y="518" text-anchor="end" transform="rotate(-45 335.5,518)" font-family="Arial" font-size="12">jamming-medium</text>
<rect x="363.3" y="252.3" width="31.5" height="247.7" fill="#4a78c2"/>
<text x="379.0" y="244.3" text-anchor="middle" font-family="Arial" font-size="12">27.09</text>
<text x="379.0" y="518" text-anchor="end" transform="rotate(-45 379.0,518)" font-family="Arial" font-size="12">jamming_spoofing-…</text>
<rect x="406.8" y="173.8" width="31.5" height="326.2" fill="#4a78c2"/>
<text x="422.6" y="165.8" text-anchor="middle" font-family="Arial" font-size="12">35.66</text>
<text x="422.6" y="518" text-anchor="end" transform="rotate(-45 422.6,518)" font-family="Arial" font-size="12">jamming_spoofing-…</text>
<rect x="450.4" y="209.8" width="31.5" height="290.2" fill="#4a78c2"/>
<text x="466.1" y="201.8" text-anchor="middle" font-family="Arial" font-size="12">31.73</text>
<text x="466.1" y="518" text-anchor="end" transform="rotate(-45 466.1,518)" font-family="Arial" font-size="12">jamming_spoofing-…</text>
<rect x="493.9" y="253.6" width="31.5" height="246.4" fill="#4a78c2"/>
<text x="509.7" y="245.6" text-anchor="middle" font-family="Arial" font-size="12">26.94</text>
<text x="509.7" y="518" text-anchor="end" transform="rotate(-45 509.7,518)" font-family="Arial" font-size="12">jamming_tampering…</text>
<rect x="537.5" y="172.6" width="31.5" height="327.4" fill="#4a78c2"/>
<text x="553.2" y="164.6" text-anchor="middle" font-family="Arial" font-size="12">35.79</text>
<text x="553.2" y="518" text-anchor="end" transform="rotate(-45 553.2,518)" font-family="Arial" font-size="12">jamming_tampering…</text>
<rect x="581.0" y="208.8" width="31.5" height="291.2" fill="#4a78c2"/>
<text x="596.8" y="200.8" text-anchor="middle" font-family="Arial" font-size="12">31.84</text>
<text x="596.8" y="518" text-anchor="end" transform="rotate(-45 596.8,518)" font-family="Arial" font-size="12">jamming_tampering…</text>
<rect x="624.5" y="135.0" width="31.5" height="365.0" fill="#4a78c2"/>
<text x="640.3" y="127.0" text-anchor="middle" font-family="Arial" font-size="12">39.91</text>
<text x="640.3" y="518" text-anchor="end" transform="rotate(-45 640.3,518)" font-family="Arial" font-size="12">normal-none</text>
<rect x="668.1" y="134.9" width="31.5" height="365.1" fill="#4a78c2"/>
<text x="683.9" y="126.9" text-anchor="middle" font-family="Arial" font-size="12">39.91</text>
<text x="683.9" y="518" text-anchor="end" transform="rotate(-45 683.9,518)" font-family="Arial" font-size="12">spoofing-high</text>
<rect x="711.6" y="134.8" width="31.5" height="365.2" fill="#4a78c2"/>
<text x="727.4" y="126.8" text-anchor="middle" font-family="Arial" font-size="12">39.92</text>
<text x="727.4" y="518" text-anchor="end" transform="rotate(-45 727.4,518)" font-family="Arial" font-size="12">spoofing-low</text>
<rect x="755.2" y="134.8" width="31.5" height="365.2" fill="#4a78c2"/>
<text x="771.0" y="126.8" text-anchor="middle" font-family="Arial" font-size="12">39.92</text>
<text x="771.0" y="518" text-anchor="end" transform="rotate(-45 771.0,518)" font-family="Arial" font-size="12">spoofing-medium</text>
<rect x="798.7" y="134.8" width="31.5" height="365.2" fill="#4a78c2"/>
<text x="814.5" y="126.8" text-anchor="middle" font-family="Arial" font-size="12">39.93</text>
<text x="814.5" y="518" text-anchor="end" transform="rotate(-45 814.5,518)" font-family="Arial" font-size="12">spoofing_tamperin…</text>
<rect x="842.3" y="134.9" width="31.5" height="365.1" fill="#4a78c2"/>
<text x="858.0" y="126.9" text-anchor="middle" font-family="Arial" font-size="12">39.92</text>
<text x="858.0" y="518" text-anchor="end" transform="rotate(-45 858.0,518)" font-family="Arial" font-size="12">spoofing_tamperin…</text>
<rect x="885.8" y="134.9" width="31.5" height="365.1" fill="#4a78c2"/>
<text x="901.6" y="126.9" text-anchor="middle" font-family="Arial" font-size="12">39.92</text>
<text x="901.6" y="518" text-anchor="end" transform="rotate(-45 901.6,518)" font-family="Arial" font-size="12">spoofing_tamperin…</text>
<rect x="929.4" y="134.9" width="31.5" height="365.1" fill="#4a78c2"/>
<text x="945.1" y="126.9" text-anchor="middle" font-family="Arial" font-size="12">39.92</text>
<text x="945.1" y="518" text-anchor="end" transform="rotate(-45 945.1,518)" font-family="Arial" font-size="12">tampering-high</text>
<rect x="972.9" y="134.8" width="31.5" height="365.2" fill="#4a78c2"/>
<text x="988.7" y="126.8" text-anchor="middle" font-family="Arial" font-size="12">39.93</text>
<text x="988.7" y="518" text-anchor="end" transform="rotate(-45 988.7,518)" font-family="Arial" font-size="12">tampering-low</text>
<rect x="1016.5" y="134.9" width="31.5" height="365.1" fill="#4a78c2"/>
<text x="1032.2" y="126.9" text-anchor="middle" font-family="Arial" font-size="12">39.92</text>
<text x="1032.2" y="518" text-anchor="end" transform="rotate(-45 1032.2,518)" font-family="Arial" font-size="12">tampering-medium</text>
</svg>