<svg xmlns="http://www.w3.org/2000/svg" width="1100" height="650" viewBox="0 0 1100 650">
<rect width="100%" height="100%" fill="white"/>
<text x="550.0" y="40" text-anchor="middle" font-family="Arial" font-size="24" font-weight="bold">RA-MARS v5 Model Macro-F1 Comparison</text>
<line x1="90" y1="80" x2="90" y2="500" stroke="black" stroke-width="2"/>
<line x1="90" y1="500" x2="1060" y2="500" stroke="black" stroke-width="2"/>
<text x="25" y="325.0" transform="rotate(-90 25,325.0)" text-anchor="middle" font-family="Arial" font-size="16">Macro-F1 (%)</text>
<line x1="85" y1="500.0" x2="90" y2="500.0" stroke="black"/>
<text x="80" y="505.0" text-anchor="end" font-family="Arial" font-size="12">0.0</text>
<line x1="90" y1="500.0" x2="1060" y2="500.0" stroke="#ddd"/>
<line x1="85" y1="416.0" x2="90" y2="416.0" stroke="black"/>
<text x="80" y="421.0" text-anchor="end" font-family="Arial" font-size="12">23.0</text>
<line x1="90" y1="416.0" x2="1060" y2="416.0" stroke="#ddd"/>
<line x1="85" y1="332.0" x2="90" y2="332.0" stroke="black"/>
<text x="80" y="337.0" text-anchor="end" font-family="Arial" font-size="12">45.9</text>
<line x1="90" y1="332.0" x2="1060" y2="332.0" stroke="#ddd"/>
<line x1="85" y1="248.0" x2="90" y2="248.0" stroke="black"/>
<text x="80" y="253.0" text-anchor="end" font-family="Arial" font-size="12">68.9</text>
<line x1="90" y1="248.0" x2="1060" y2="248.0" stroke="#ddd"/>
<line x1="85" y1="164.0" x2="90" y2="164.0" stroke="black"/>
<text x="80" y="169.0" text-anchor="end" font-family="Arial" font-size="12">91.8</text>
<line x1="90" y1="164.0" x2="1060" y2="164.0" stroke="#ddd"/>
<line x1="85" y1="80.0" x2="90" y2="80.0" stroke="black"/>
<text x="80" y="85.0" text-anchor="end" font-family="Arial" font-size="12">114.8</text>
<line x1="90" y1="80.0" x2="1060" y2="80.0" stroke="#ddd"/>
<rect x="102.0" y="134.8" width="227.5" height="365.2" fill="#4a78c2"/>
<text x="215.8" y="126.8" text-anchor="middle" font-family="Arial" font-size="12">99.81</text>
<text x="215.8" y="518" text-anchor="end" transform="rotate(-45 215.8,518)" font-family="Arial" font-size="12">Binary LSTM</text>
<rect x="341.5" y="135.0" width="227.5" height="365.0" fill="#4a78c2"/>
<text x="455.2" y="127.0" text-anchor="middle" font-family="Arial" font-size="12">99.76</text>
<text x="455.2" y="518" text-anchor="end" transform="rotate(-45 455.2,518)" font-family="Arial" font-size="12">Binary GRU</text>
<rect x="581.0" y="137.1" width="227.5" height="362.9" fill="#4a78c2"/>
<text x="694.8" y="129.1" text-anchor="middle" font-family="Arial" font-size="12">99.18</text>
<text x="694.8" y="518" text-anchor="end" transform="rotate(-45 694.8,518)" font-family="Arial" font-size="12">Weighted LSTM v4</text>
<rect x="820.5" y="139.0" width="227.5" height="361.0" fill="#4a78c2"/>
<text x="934.2" y="131.0" text-anchor="middle" font-family="Arial" font-size="12">98.66</text>
<text x="934.2" y="518" text-anchor="end" transform="rotate(-45 934.2,518)" font-family="Arial" font-size="12">Weighted GRU v4</text>
</svg>